<svg width="40" height="40" viewBox="0 0 40 40" fill="none" xmlns="http://www.w3.org/2000/svg">
<path d="M20 8C14.6667 8 11.3333 10.6667 10 16C12 13.3333 14.3333 12.3333 17 13C18.5215 13.3804 19.609 14.4842 20.8126 15.706C22.7735 17.6964 25.043 20 30 20C35.3333 20 38.6667 17.3333 40 12C38 14.6667 35.6667 15.6667 33 15C31.4785 14.6196 30.391 13.5158 29.1873 12.294C27.2264 10.3036 24.957 8 20 8ZM10 20C4.66667 20 1.33333 22.6667 0 28C2 25.3333 4.33333 24.3333 7 25C8.52151 25.3804 9.60898 26.4842 10.8126 27.706C12.7735 29.6964 15.043 32 20 32C25.3333 32 28.6667 29.3333 30 24C28 26.6667 25.6667 27.6667 23 27C21.4785 26.6196 20.391 25.5158 19.1874 24.294C17.2265 22.3036 14.957 20 10 20Z" fill="#6366F1"/>
</svg>
